<svg width="120" height="auto" viewBox="0 0 220 94" fill="none" xmlns="http://www.w3.org/2000/svg">
<g filter="url(#filter0_d)">
<path d="M54.783 73H69.217C72.7924 73 75.3192 72.257 76.7974 70.7709C78.2755 69.2849 79.0097 66.7276 78.9999 63.0992V29.9009C78.9999 26.2824 78.2657 23.7251 76.7974 22.2292C75.329 20.7332 72.8022 19.9902 69.217 20.0001H54.783C51.2076 20.0001 48.6808 20.7431 47.2026 22.2292C45.7245 23.7152 44.9903 26.2725 45.0001 29.9009V63.0843C45.0001 66.7078 45.7343 69.2651 47.2026 70.7561C48.671 72.2471 51.1978 72.995 54.783 73ZM53.2339 31.9851C53.2339 29.8303 53.5092 28.2997 54.0599 27.3932C54.6068 26.4904 55.9504 26.0372 58.0978 26.0372H65.9352C68.0692 26.0372 69.4152 26.4892 69.9732 27.3932C70.5312 28.2972 70.8065 29.8278 70.7991 31.9851V61.0002C70.7991 63.1599 70.5238 64.6905 69.9732 65.592C69.4225 66.4936 68.0766 66.9456 65.9352 66.9481H58.0795C55.9504 66.9481 54.6068 66.4985 54.0415 65.592C53.4762 64.6856 53.2156 63.1586 53.2156 61.0002L53.2339 31.9851Z" fill="#CDD5D9"/>
</g>
<g filter="url(#filter1_d)">
<path d="M111.209 20.0245H101.925C100.824 20.0245 100.119 20.2176 99.811 20.5962C99.5027 20.9749 99.3486 21.7099 99.3486 22.8236V26.0571H107.903C110.034 26.0571 111.379 26.5088 111.939 27.4121C112.5 28.3155 112.774 29.845 112.761 32.0006V60.9942C112.761 63.1523 112.487 64.6818 111.939 65.5827C111.391 66.4836 110.046 66.9352 107.903 66.9377H95.2312C95.2624 67.1107 95.2624 67.2881 95.2312 67.4611V0H89.767C88.666 0 87.9321 0.191805 87.5651 0.575417C87.1982 0.959028 87.0098 1.7015 87 2.80284V73H111.22C114.794 73 117.32 72.2575 118.798 70.7726C120.276 69.2876 121.01 66.7323 121 63.1065V29.9328C121 26.317 120.266 23.7616 118.798 22.2668C117.33 20.7719 114.801 20.0245 111.209 20.0245Z" fill="#CDD5D9"/>
</g>
<g filter="url(#filter2_d)">
<path d="M159.761 22.2668C158.293 20.7818 155.767 20.0394 152.183 20.0394H142.921C141.82 20.0394 141.116 20.2324 140.807 20.6111C140.499 20.9897 140.341 21.7248 140.341 22.8385V26.072H148.899C151.027 26.072 152.373 26.5236 152.936 27.427C153.498 28.3303 153.772 29.8598 153.758 32.0155V61.009C153.758 63.1672 153.484 64.6967 152.936 65.5975C152.388 66.4984 151.042 66.9501 148.899 66.9525H136.216C136.248 67.1244 136.248 67.3005 136.216 67.4723V0H130.771C129.67 0 128.936 0.191805 128.569 0.575417C128.202 0.959028 128.012 1.7015 128 2.80284V73H152.22C155.792 73 158.318 72.2575 159.798 70.7726C161.278 69.2876 162.012 66.7323 162 63.1065V29.9328C161.995 26.317 161.249 23.7616 159.761 22.2668Z" fill="#CDD5D9"/>
</g>
<g filter="url(#filter3_d)">
<path d="M169.618 20.572C169.217 20.9434 169 21.6862 169 22.8004V73H174.975C176.178 73 176.981 72.8106 177.382 72.428C177.783 72.0455 178 71.3138 178 70.1996V20H172.045C170.842 20 170.031 20.1931 169.618 20.572Z" fill="#CDD5D9"/>
</g>
<g filter="url(#filter4_d)">
<path d="M206.186 20H194.811C191.225 20 188.691 20.7432 187.209 22.2297C185.727 23.7162 184.99 26.2741 185 29.9036V63.0964C185 66.7209 185.736 69.2789 187.209 70.7703C188.681 72.2617 191.215 73.0049 194.811 73H210.427C211.528 73 212.235 72.8092 212.547 72.4277C212.859 72.0462 213.013 71.3029 213.011 70.198V66.9612H198.116C195.981 66.9612 194.638 66.5091 194.085 65.6048C193.533 64.7005 193.257 63.1695 193.257 61.0116V32.0032C193.257 29.6397 193.568 28.0566 194.189 27.254C194.809 26.4513 196.257 26.0512 198.532 26.0536H202.979C205.115 26.0536 206.527 26.4253 207.217 27.1685C207.901 27.8783 208.269 29.3239 208.269 31.4755V39.5136C208.269 41.6727 207.99 43.2037 207.441 44.1068C206.893 45.0098 205.545 45.4632 203.392 45.4632H197.395V48.7C197.395 49.8148 197.551 50.558 197.862 50.9297C198.172 51.3013 198.875 51.5057 199.979 51.5057H206.186C209.784 51.5304 212.319 50.7884 213.791 49.2797C215.264 47.7709 216 45.2142 216 41.6095V29.9184C216 26.2989 215.264 23.7409 213.791 22.2446C212.319 20.7482 209.784 20 206.186 20Z" fill="#CDD5D9"/>
</g>
<g filter="url(#filter5_d)">
<path d="M211.184 77.6981H39.9406L30.568 46.9849C33.429 46.7082 35.453 45.8236 36.6401 44.3313C37.8272 42.8389 38.4195 40.4682 38.417 37.2191V18.8734C38.417 15.2686 37.672 12.7187 36.1819 11.2239C34.6918 9.72904 32.1264 8.9878 28.4857 9.00015H6.81252C5.69496 9.00015 4.94992 9.19287 4.5774 9.57091C4.20489 9.94894 4 10.6828 4 11.7946V81.8639H9.53563C10.6532 81.8639 11.3982 81.6749 11.7707 81.2894C12.1433 80.904 12.3481 80.1776 12.3481 79.0657V15.0227H25.1293C27.2899 15.0227 28.6558 15.4736 29.227 16.3755C29.7982 17.2773 30.0776 18.8043 30.0651 20.9563V35.1177C30.0651 37.2673 29.7857 38.7979 29.227 39.6985C28.6682 40.5991 27.3085 41.0513 25.1293 41.0513H16.5613V44.2794C16.5613 45.3913 16.719 46.1325 17.0344 46.5031C17.3473 46.8737 18.0589 47.0739 19.1764 47.0739H22.3167L33.3917 83.2018C33.7419 84.3137 34.1777 85.0549 34.6993 85.4255C35.2208 85.7962 36.0403 85.9876 37.1579 86H214V80.5111C214 79.3993 213.806 78.658 213.423 78.2874C213.039 77.9168 212.301 77.6981 211.184 77.6981Z" fill="#CDD5D9"/>
</g>
<g filter="url(#filter6_d)">
<path d="M177.383 4.62398C176.983 4.2188 176.182 4 174.98 4H169V10.9408C169 12.1564 169.204 12.9668 169.621 13.372C170.037 13.7771 170.822 14 172.024 14H178V7.07131C178 5.85575 177.794 5.03998 177.383 4.62398Z" fill="#CDD5D9"/>
</g>
<defs>
<filter id="filter0_d" x="41" y="20" width="42" height="61" filterUnits="userSpaceOnUse" color-interpolation-filters="sRGB">
<feFlood flood-opacity="0" result="BackgroundImageFix"/>
<feColorMatrix in="SourceAlpha" type="matrix" values="0 0 0 0 0 0 0 0 0 0 0 0 0 0 0 0 0 0 127 0"/>
<feOffset dy="4"/>
<feGaussianBlur stdDeviation="2"/>
<feColorMatrix type="matrix" values="0 0 0 0 0.696875 0 0 0 0 0.732292 0 0 0 0 0.75 0 0 0 0.5 0"/>
<feBlend mode="normal" in2="BackgroundImageFix" result="effect1_dropShadow"/>
<feBlend mode="normal" in="SourceGraphic" in2="effect1_dropShadow" result="shape"/>
</filter>
<filter id="filter1_d" x="83" y="0" width="42" height="81" filterUnits="userSpaceOnUse" color-interpolation-filters="sRGB">
<feFlood flood-opacity="0" result="BackgroundImageFix"/>
<feColorMatrix in="SourceAlpha" type="matrix" values="0 0 0 0 0 0 0 0 0 0 0 0 0 0 0 0 0 0 127 0"/>
<feOffset dy="4"/>
<feGaussianBlur stdDeviation="2"/>
<feColorMatrix type="matrix" values="0 0 0 0 0.696875 0 0 0 0 0.732292 0 0 0 0 0.75 0 0 0 0.5 0"/>
<feBlend mode="normal" in2="BackgroundImageFix" result="effect1_dropShadow"/>
<feBlend mode="normal" in="SourceGraphic" in2="effect1_dropShadow" result="shape"/>
</filter>
<filter id="filter2_d" x="124" y="0" width="42" height="81" filterUnits="userSpaceOnUse" color-interpolation-filters="sRGB">
<feFlood flood-opacity="0" result="BackgroundImageFix"/>
<feColorMatrix in="SourceAlpha" type="matrix" values="0 0 0 0 0 0 0 0 0 0 0 0 0 0 0 0 0 0 127 0"/>
<feOffset dy="4"/>
<feGaussianBlur stdDeviation="2"/>
<feColorMatrix type="matrix" values="0 0 0 0 0.696875 0 0 0 0 0.732292 0 0 0 0 0.75 0 0 0 0.5 0"/>
<feBlend mode="normal" in2="BackgroundImageFix" result="effect1_dropShadow"/>
<feBlend mode="normal" in="SourceGraphic" in2="effect1_dropShadow" result="shape"/>
</filter>
<filter id="filter3_d" x="165" y="20" width="17" height="61" filterUnits="userSpaceOnUse" color-interpolation-filters="sRGB">
<feFlood flood-opacity="0" result="BackgroundImageFix"/>
<feColorMatrix in="SourceAlpha" type="matrix" values="0 0 0 0 0 0 0 0 0 0 0 0 0 0 0 0 0 0 127 0"/>
<feOffset dy="4"/>
<feGaussianBlur stdDeviation="2"/>
<feColorMatrix type="matrix" values="0 0 0 0 0.696875 0 0 0 0 0.732292 0 0 0 0 0.75 0 0 0 0.5 0"/>
<feBlend mode="normal" in2="BackgroundImageFix" result="effect1_dropShadow"/>
<feBlend mode="normal" in="SourceGraphic" in2="effect1_dropShadow" result="shape"/>
</filter>
<filter id="filter4_d" x="181" y="20" width="39" height="61" filterUnits="userSpaceOnUse" color-interpolation-filters="sRGB">
<feFlood flood-opacity="0" result="BackgroundImageFix"/>
<feColorMatrix in="SourceAlpha" type="matrix" values="0 0 0 0 0 0 0 0 0 0 0 0 0 0 0 0 0 0 127 0"/>
<feOffset dy="4"/>
<feGaussianBlur stdDeviation="2"/>
<feColorMatrix type="matrix" values="0 0 0 0 0.696875 0 0 0 0 0.732292 0 0 0 0 0.75 0 0 0 0.5 0"/>
<feBlend mode="normal" in2="BackgroundImageFix" result="effect1_dropShadow"/>
<feBlend mode="normal" in="SourceGraphic" in2="effect1_dropShadow" result="shape"/>
</filter>
<filter id="filter5_d" x="0" y="9" width="218" height="85" filterUnits="userSpaceOnUse" color-interpolation-filters="sRGB">
<feFlood flood-opacity="0" result="BackgroundImageFix"/>
<feColorMatrix in="SourceAlpha" type="matrix" values="0 0 0 0 0 0 0 0 0 0 0 0 0 0 0 0 0 0 127 0"/>
<feOffset dy="4"/>
<feGaussianBlur stdDeviation="2"/>
<feColorMatrix type="matrix" values="0 0 0 0 0.696875 0 0 0 0 0.732292 0 0 0 0 0.75 0 0 0 0.5 0"/>
<feBlend mode="normal" in2="BackgroundImageFix" result="effect1_dropShadow"/>
<feBlend mode="normal" in="SourceGraphic" in2="effect1_dropShadow" result="shape"/>
</filter>
<filter id="filter6_d" x="165" y="4" width="17" height="18" filterUnits="userSpaceOnUse" color-interpolation-filters="sRGB">
<feFlood flood-opacity="0" result="BackgroundImageFix"/>
<feColorMatrix in="SourceAlpha" type="matrix" values="0 0 0 0 0 0 0 0 0 0 0 0 0 0 0 0 0 0 127 0"/>
<feOffset dy="4"/>
<feGaussianBlur stdDeviation="2"/>
<feColorMatrix type="matrix" values="0 0 0 0 0.696875 0 0 0 0 0.732292 0 0 0 0 0.75 0 0 0 0.5 0"/>
<feBlend mode="normal" in2="BackgroundImageFix" result="effect1_dropShadow"/>
<feBlend mode="normal" in="SourceGraphic" in2="effect1_dropShadow" result="shape"/>
</filter>
</defs>
</svg>
