<svg width="120" height="auto" id="Layer_1" data-name="Layer 1" xmlns="http://www.w3.org/2000/svg" xmlns:xlink="http://www.w3.org/1999/xlink" viewBox="0 0 117.39 45.41"><defs><style>.cls-1{fill:url(#linear-gradient);}</style><linearGradient id="linear-gradient" x1="58.7" y1="45.41" x2="58.7" y2="-14.85" gradientUnits="userSpaceOnUse"><stop offset="0" stop-color="#19afe6"/><stop offset="1" stop-color="#64c5b8"/></linearGradient></defs><path class="cls-1" d="M68.22,38.39H65.31V1.48A1.71,1.71,0,0,1,65.61.3,1.71,1.71,0,0,1,66.79,0H69.7V35.2h6.74c1.13,0,1.85-.23,2.14-.71A4.87,4.87,0,0,0,79,32.08V16.83a4.9,4.9,0,0,0-.44-2.41c-.29-.47-1-.71-2.14-.71H71.89V12a1.94,1.94,0,0,1,.25-1.18c.16-.2.54-.3,1.12-.3H78.2c1.9,0,3.24.39,4,1.18s1.18,2.13,1.18,4V33.18c0,1.9-.4,3.24-1.18,4s-2.13,1.18-4,1.18h-10ZM91.44,7.27a1.73,1.73,0,0,0,.3-1.18V3.18H88.4a1.69,1.69,0,0,0-1.18.3,1.71,1.71,0,0,0-.3,1.18V7.57h3.34A1.71,1.71,0,0,0,91.44,7.27Zm-4,3.56A1.65,1.65,0,0,0,87.13,12V38.39H90a1.64,1.64,0,0,0,1.18-.31,1.68,1.68,0,0,0,.3-1.17V10.53h-2.9A1.69,1.69,0,0,0,87.44,10.83Zm19-.3h-6c-1.9,0-3.25.39-4,1.18s-1.18,2.13-1.18,4V33.18c0,1.9.39,3.24,1.18,4s2.13,1.18,4,1.18h8.28c.58,0,1-.1,1.12-.31a1.91,1.91,0,0,0,.25-1.17V35.2h-7.9c-1.13,0-1.84-.23-2.14-.71a4.89,4.89,0,0,1-.43-2.41V16.83a4.34,4.34,0,0,1,.49-2.49c.33-.42,1.1-.63,2.3-.63h2.36a3.15,3.15,0,0,1,2.25.58,3.41,3.41,0,0,1,.55,2.27v4.22a4.91,4.91,0,0,1-.44,2.42c-.29.47-1,.71-2.14.71h-3.18v1.7a1.94,1.94,0,0,0,.25,1.18c.16.2.53.3,1.12.3h3.29c1.9,0,3.24-.39,4-1.18s1.18-2.13,1.18-4V15.74c0-1.9-.39-3.25-1.18-4S108.39,10.53,106.49,10.53Zm10.6,30.36a1.69,1.69,0,0,0-1.18-.3H113v3.34a1.19,1.19,0,0,0,1.48,1.48h2.9V42.07A1.69,1.69,0,0,0,117.09,40.89Zm-7.34.22a1.73,1.73,0,0,0-1.18-.3H18.84L13.93,24.63a4.4,4.4,0,0,0,3.18-1.4A6.07,6.07,0,0,0,18,19.47V9.82c0-1.9-.39-3.24-1.18-4s-2.13-1.18-4-1.18H1.48A1.7,1.7,0,0,0,.3,4.92,1.68,1.68,0,0,0,0,6.09V43H2.91a1.73,1.73,0,0,0,1.18-.3,1.71,1.71,0,0,0,.3-1.18V7.79h6.69c1.13,0,1.84.24,2.14.72a4.89,4.89,0,0,1,.43,2.41v7.46a4.89,4.89,0,0,1-.43,2.41c-.3.48-1,.71-2.14.71H6.58v1.7a1.92,1.92,0,0,0,.25,1.18c.16.2.54.3,1.12.3H9.6l5.8,19a2.26,2.26,0,0,0,.68,1.18,2.23,2.23,0,0,0,1.29.3h92.68v-2.9A1.69,1.69,0,0,0,109.75,41.11Zm-87-3.9c-.79-.79-1.18-2.13-1.18-4V15.74c0-1.9.39-3.25,1.18-4s2.13-1.18,4-1.18h7.68c1.9,0,3.24.39,4,1.18s1.18,2.13,1.18,4V33.18c0,1.9-.4,3.24-1.18,4s-2.13,1.18-4,1.18H26.76C24.86,38.39,23.51,38,22.73,37.21Zm3.21-5.13a4.76,4.76,0,0,0,.44,2.41c.29.48,1,.71,2.13.71h4.17c1.13,0,1.85-.23,2.14-.71a4.87,4.87,0,0,0,.44-2.41V16.83a4.9,4.9,0,0,0-.44-2.41c-.29-.47-1-.71-2.14-.71H28.51c-1.13,0-1.84.24-2.13.71a4.78,4.78,0,0,0-.44,2.41Zm20.52,6.3h9.86c1.9,0,3.24-.4,4-1.18s1.18-2.13,1.18-4V15.74c0-1.9-.4-3.25-1.18-4s-2.13-1.18-4-1.18H51.38c-.58,0-1,.1-1.12.3A1.94,1.94,0,0,0,50,12v1.7h4.55c1.13,0,1.85.24,2.14.71a4.9,4.9,0,0,1,.44,2.41V32.08a4.87,4.87,0,0,1-.44,2.41c-.29.48-1,.71-2.14.71H47.82V0H44.91a1.71,1.71,0,0,0-1.18.3,1.71,1.71,0,0,0-.3,1.18V38.39h3Z"/></svg>